#tb 0: 1001/30000
#media_type 0: video
#codec_id 0: rawvideo
#dimensions 0: 128x128
#sar 0: 4/3
0,          0,          0,        1,    24576, 0xcdd6878a
0,          1,          1,        1,    24576, 0xaf2fa418
0,          2,          2,        1,    24576, 0x4197a573
0,          3,          3,        1,    24576, 0x4f8fbfd8
0,          4,          4,        1,    24576, 0xaea1d0c3
0,          5,          5,        1,    24576, 0x22b4d91d
0,          6,          6,        1,    24576, 0x5880c312
0,          7,          7,        1,    24576, 0x4a7fb941
0,          8,          8,        1,    24576, 0xc558cb2e
